<mxfile host="app.diagrams.net" modified="2021-11-21T14:41:37.875Z" agent="5.0 (Macintosh; Intel Mac OS X 10_15_7) AppleWebKit/537.36 (KHTML, like Gecko) Chrome/95.0.4638.69 Safari/537.36" etag="S5Z0JXfRhs4ojarVrz5p" version="15.8.3" type="github" pages="2">
  <diagram id="3-LJM8cy5WZiCc4egxbc" name="Page-1">
    <mxGraphModel dx="1186" dy="764" grid="1" gridSize="10" guides="1" tooltips="1" connect="1" arrows="1" fold="1" page="1" pageScale="1" pageWidth="850" pageHeight="1100" math="0" shadow="0">
      <root>
        <mxCell id="0" />
        <mxCell id="1" parent="0" />
        <mxCell id="yGHzoKNZI_u5UiGkasQw-3" value="" style="rounded=0;whiteSpace=wrap;html=1;" vertex="1" parent="1">
          <mxGeometry x="290" y="140" width="250" height="160" as="geometry" />
        </mxCell>
        <mxCell id="yGHzoKNZI_u5UiGkasQw-2" value="" style="sketch=0;html=1;dashed=0;whitespace=wrap;fillColor=#2875E2;strokeColor=#ffffff;points=[[0.005,0.63,0],[0.1,0.2,0],[0.9,0.2,0],[0.5,0,0],[0.995,0.63,0],[0.72,0.99,0],[0.5,1,0],[0.28,0.99,0]];shape=mxgraph.kubernetes.icon;prIcon=pod" vertex="1" parent="1">
          <mxGeometry x="350" y="165" width="120" height="90" as="geometry" />
        </mxCell>
        <mxCell id="yGHzoKNZI_u5UiGkasQw-4" value="" style="endArrow=classic;html=1;rounded=0;" edge="1" parent="1" target="yGHzoKNZI_u5UiGkasQw-2">
          <mxGeometry width="50" height="50" relative="1" as="geometry">
            <mxPoint x="180" y="210" as="sourcePoint" />
            <mxPoint x="450" y="370" as="targetPoint" />
          </mxGeometry>
        </mxCell>
        <mxCell id="yGHzoKNZI_u5UiGkasQw-5" value="" style="sketch=0;points=[[0.015,0.015,0],[0.985,0.015,0],[0.985,0.985,0],[0.015,0.985,0],[0.25,0,0],[0.5,0,0],[0.75,0,0],[1,0.25,0],[1,0.5,0],[1,0.75,0],[0.75,1,0],[0.5,1,0],[0.25,1,0],[0,0.75,0],[0,0.5,0],[0,0.25,0]];verticalLabelPosition=bottom;html=1;verticalAlign=top;aspect=fixed;align=center;pointerEvents=1;shape=mxgraph.cisco19.handheld;fillColor=#005073;strokeColor=none;" vertex="1" parent="1">
          <mxGeometry x="110" y="185" width="37.5" height="50" as="geometry" />
        </mxCell>
        <mxCell id="yGHzoKNZI_u5UiGkasQw-6" value="Client" style="text;html=1;align=center;verticalAlign=middle;resizable=0;points=[];autosize=1;strokeColor=none;fillColor=none;" vertex="1" parent="1">
          <mxGeometry x="103.75" y="240" width="50" height="20" as="geometry" />
        </mxCell>
        <mxCell id="yGHzoKNZI_u5UiGkasQw-7" value="App" style="text;html=1;align=center;verticalAlign=middle;resizable=0;points=[];autosize=1;strokeColor=none;fillColor=none;" vertex="1" parent="1">
          <mxGeometry x="390" y="260" width="40" height="20" as="geometry" />
        </mxCell>
        <mxCell id="yGHzoKNZI_u5UiGkasQw-8" value="getPerson(personId)" style="text;html=1;align=center;verticalAlign=middle;resizable=0;points=[];autosize=1;strokeColor=none;fillColor=none;" vertex="1" parent="1">
          <mxGeometry x="190" y="185" width="120" height="20" as="geometry" />
        </mxCell>
        <mxCell id="yGHzoKNZI_u5UiGkasQw-9" value="AWS" style="text;html=1;align=center;verticalAlign=middle;resizable=0;points=[];autosize=1;strokeColor=none;fillColor=none;" vertex="1" parent="1">
          <mxGeometry x="290" y="140" width="40" height="20" as="geometry" />
        </mxCell>
        <mxCell id="yGHzoKNZI_u5UiGkasQw-10" value="" style="endArrow=classic;html=1;rounded=0;exitX=0.24;exitY=0.563;exitDx=0;exitDy=0;exitPerimeter=0;dashed=1;" edge="1" parent="1" source="yGHzoKNZI_u5UiGkasQw-3">
          <mxGeometry width="50" height="50" relative="1" as="geometry">
            <mxPoint x="400" y="420" as="sourcePoint" />
            <mxPoint x="180" y="230" as="targetPoint" />
          </mxGeometry>
        </mxCell>
        <mxCell id="yGHzoKNZI_u5UiGkasQw-11" value="response" style="text;html=1;align=center;verticalAlign=middle;resizable=0;points=[];autosize=1;strokeColor=none;fillColor=none;" vertex="1" parent="1">
          <mxGeometry x="230" y="230" width="60" height="20" as="geometry" />
        </mxCell>
      </root>
    </mxGraphModel>
  </diagram>
  <diagram id="r6DtTsKFPhT2YJrocKyY" name="Page-2">
    <mxGraphModel dx="1186" dy="764" grid="1" gridSize="10" guides="1" tooltips="1" connect="1" arrows="1" fold="1" page="1" pageScale="1" pageWidth="850" pageHeight="1100" math="0" shadow="0">
      <root>
        <mxCell id="0DiGPChjsTGg00vA_t30-0" />
        <mxCell id="0DiGPChjsTGg00vA_t30-1" parent="0DiGPChjsTGg00vA_t30-0" />
        <mxCell id="0DiGPChjsTGg00vA_t30-2" value="" style="whiteSpace=wrap;html=1;aspect=fixed;" vertex="1" parent="0DiGPChjsTGg00vA_t30-1">
          <mxGeometry x="190" y="190" width="320" height="320" as="geometry" />
        </mxCell>
        <mxCell id="0DiGPChjsTGg00vA_t30-3" value="API Server" style="rounded=0;whiteSpace=wrap;html=1;fillColor=#E1D5E7;" vertex="1" parent="0DiGPChjsTGg00vA_t30-1">
          <mxGeometry x="240" y="200" width="230" height="60" as="geometry" />
        </mxCell>
        <mxCell id="0DiGPChjsTGg00vA_t30-4" value="Control Manager" style="rounded=0;whiteSpace=wrap;html=1;fillColor=#FFD966;" vertex="1" parent="0DiGPChjsTGg00vA_t30-1">
          <mxGeometry x="240" y="270" width="230" height="60" as="geometry" />
        </mxCell>
        <mxCell id="0DiGPChjsTGg00vA_t30-5" value="Scheduler" style="rounded=0;whiteSpace=wrap;html=1;fillColor=#F8CECC;" vertex="1" parent="0DiGPChjsTGg00vA_t30-1">
          <mxGeometry x="240" y="430" width="230" height="60" as="geometry" />
        </mxCell>
        <mxCell id="0DiGPChjsTGg00vA_t30-7" value="&lt;b&gt;&lt;font style=&quot;font-size: 12px&quot;&gt;Control Plane&lt;/font&gt;&lt;/b&gt;" style="text;html=1;align=center;verticalAlign=middle;resizable=0;points=[];autosize=1;strokeColor=none;fillColor=none;" vertex="1" parent="0DiGPChjsTGg00vA_t30-1">
          <mxGeometry x="190" y="160" width="90" height="20" as="geometry" />
        </mxCell>
        <mxCell id="0DiGPChjsTGg00vA_t30-9" value="Cloud Control Manager" style="rounded=0;whiteSpace=wrap;html=1;fillColor=#FFD966;" vertex="1" parent="0DiGPChjsTGg00vA_t30-1">
          <mxGeometry x="240" y="350" width="230" height="60" as="geometry" />
        </mxCell>
        <mxCell id="0DiGPChjsTGg00vA_t30-11" value="AWS &lt;br&gt;/GCP &lt;br&gt;/Azure" style="ellipse;whiteSpace=wrap;html=1;aspect=fixed;fontSize=12;fillColor=#F8CECC;" vertex="1" parent="0DiGPChjsTGg00vA_t30-1">
          <mxGeometry x="20" y="340" width="80" height="80" as="geometry" />
        </mxCell>
        <mxCell id="0DiGPChjsTGg00vA_t30-12" value="" style="endArrow=classic;html=1;rounded=0;fontSize=12;exitX=1;exitY=0.5;exitDx=0;exitDy=0;entryX=0;entryY=0.5;entryDx=0;entryDy=0;" edge="1" parent="0DiGPChjsTGg00vA_t30-1" source="0DiGPChjsTGg00vA_t30-11" target="0DiGPChjsTGg00vA_t30-9">
          <mxGeometry width="50" height="50" relative="1" as="geometry">
            <mxPoint x="400" y="410" as="sourcePoint" />
            <mxPoint x="450" y="360" as="targetPoint" />
          </mxGeometry>
        </mxCell>
      </root>
    </mxGraphModel>
  </diagram>
</mxfile>
